<svg id="Logo" xmlns="http://www.w3.org/2000/svg" width="96.16" height="32.841" viewBox="0 0 96.16 32.841">
  <path id="Path_1" data-name="Path 1" d="M300.919,512.956s-4.9,9.515-5.1,9.515-5.1-9.344-5.1-9.344h-3.568s5.12,10.19,5.606,10.87a4.443,4.443,0,0,0,3.058,1.872A3.713,3.713,0,0,0,298.711,524c.465-.8,5.776-11.043,5.776-11.043Z" transform="translate(-248.932 -503.05)" fill="#fff" fill-rule="evenodd"/>
  <path id="Path_2" data-name="Path 2" d="M316.026,520.244a3.763,3.763,0,0,0,.849,1.377c.432.442,7.136,4.248,7.136,4.248h6.456l-10.874-6.456,10.7-6.456h-6.456s-5.868,3.615-6.626,4.077a2.938,2.938,0,0,0-1.189,1.363v-3.742l-3.568,6.456v4.757h3.568Z" transform="translate(-260.641 -503.05)" fill="#fff" fill-rule="evenodd"/>
  <path id="Path_3" data-name="Path 3" d="M355.294,525.845a4.236,4.236,0,0,0,4.211-4.077c0-2.376-2.637-3.908-4.248-3.908H343.535v-1.529l15.12-.17-3.908-2.888H343.535a4.031,4.031,0,0,0-3.568,3.907c0,2.8,2.9,3.908,3.908,3.908h12.4v1.7H337.758l5.267,3.058Z" transform="translate(-272.35 -503.196)" fill="#fff" fill-rule="evenodd"/>
  <path id="Path_4" data-name="Path 4" d="M241.485,511.9c2.152-2.153,16.213-16.14,37.546-16.14,15.725,0,28.88,8.325,33.063,11.69-4.419-3.635-18.292-12.878-33.063-12.878-20.3-.927-39.826,10.68-50.969,16.819-3.606,2.005-7.331,4.074-12.062,3.737,2.4.893,11.964,1.189,15.8,1.189C237.207,516.315,238.668,514.714,241.485,511.9Z" transform="translate(-216 -494.516)" fill="#02a3ff" fill-rule="evenodd"/>
  <path id="Path_5" data-name="Path 5" d="M298.374,540.534c-17.982-.425-28.919-8.215-35.678-14.611-.356.26-3.593,3.282-5.267,4.587,5.564,2.951,22.139,11.383,40.095,11.383s33.31-12.955,33.809-13.592C330.788,528.6,316.92,540.972,298.374,540.534Z" transform="translate(-235.174 -509.052)" fill="#76b751" fill-rule="evenodd"/>
</svg>
